<svg width="117" height="210" viewBox="0 0 117 210" fill="none" xmlns="http://www.w3.org/2000/svg">
<path d="M112.739 130.982L103.668 115.896L86.3441 112.774L95.4156 127.859L112.739 130.982Z" fill="#FFDD8D"/>
<path d="M26.4659 5.94269L11.3805 15.0142L8.25781 32.338L23.3432 23.2664L26.4659 5.94269Z" fill="#FFDD8D"/>
<path d="M26.4659 203.307L11.3805 194.236L8.25781 176.912L23.3432 185.983L26.4659 203.307Z" fill="#FFDD8D"/>
<path d="M110.923 78.9694L101.851 94.0548L84.5277 97.1775L93.5992 82.092L110.923 78.9694Z" fill="#FFDD8D"/>
<path d="M80.8321 149.431L83.2427 131.994L71.7195 118.687L69.3089 136.124L80.8321 149.431Z" fill="#FFDD8D"/>
<path d="M44.3315 36.0328L26.8944 33.6222L13.5873 45.1454L31.0244 47.556L44.3315 36.0328Z" fill="#FFDD8D"/>
<path d="M44.3315 173.217L26.8944 175.628L13.5873 164.104L31.0244 161.694L44.3315 173.217Z" fill="#FFDD8D"/>
<path d="M80.8321 61.1051L83.2427 78.5422L71.7195 91.8493L69.3089 74.4122L80.8321 61.1051Z" fill="#FFDD8D"/>
<path d="M-64.2266 99.9588L0.0746866 49.957L-3.46476 60.29L-54.9058 100.291L-64.2266 99.9588Z" fill="#FFDD8D"/>
<path d="M-64.2266 110.697L0.0746866 160.698L-3.46476 150.365L-54.9058 110.364L-64.2266 110.697Z" fill="#FFDD8D"/>
<path d="M64.3926 99.9588L0.091329 49.957L3.63078 60.29L55.0718 100.291L64.3926 99.9588Z" fill="#FFDD8D"/>
<path d="M64.3926 110.697L0.091329 160.698L3.63078 150.365L55.0718 110.364L64.3926 110.697Z" fill="#FFDD8D"/>
<path d="M0.264044 86.2894L17.5696 100.595H-17.0416L0.264044 86.2894Z" fill="#FFDD8D"/>
<path d="M0.264044 123.53L17.5696 109.224H-17.0416L0.264044 123.53Z" fill="#FFDD8D"/>
</svg>
